# AST/ASF file generated using VICON BodyLanguage
# -----------------------------------------------
:version 1.10
:name VICON
:units
  mass 1.0
  length 0.45
  angle deg
:documentation
   .ast/.asf automatically generated from VICON data using
   VICON BodyBuilder and BodyLanguage model FoxedUp or BRILLIANT.MOD
:root
   order TX TY TZ RX RY RZ
   axis XYZ
   position 0 0 0  
   orientation 0 0 0 
:bonedata
  begin
     id 1 
     name lhipjoint
     direction 0.610259 -0.730986 0.305356 
     length 2.50941 
     axis 0 0 0  XYZ
  end
  begin
     id 2 
     name lfemur
     direction 0.34202 -0.939693 0  
     length 7.48822  
     axis 0 0 20  XYZ
    dof rx ry rz
    limits (-160.0 20.0)
           (-70.0 70.0)
           (-60.0 70.0)
  end
  begin
     id 3 
     name ltibia
     direction 0.34202 -0.939693 0   
     length 7.60141   
     axis 0 0 20   XYZ
    dof rx
    limits (-10.0 170.0)
  end
  begin
     id 4 
     name lfoot
     direction 0.0673488 -0.185039 0.980421   
     length 2.04049   
     axis -90 7.62852e-016 20   XYZ
    dof rx rz
    limits (-45.0 90.0)
           (-70.0 20.0)
  end
  begin
     id 5 
     name ltoes
     direction 1.5356e-011 -4.21729e-011 1   
     length 1.02897   
     axis -90 7.62852e-016 20   XYZ
    dof rx
    limits (-90.0 20.0)
  end
  begin
     id 6 
     name rhipjoint
     direction -0.57612 -0.754205 0.315056   
     length 2.43216  
     axis 0 0 0  XYZ 
  end
  begin
     id 7 
     name rfemur
     direction -0.34202 -0.939693 0   
     length 7.42799   
     axis 0 0 -20   XYZ
    dof rx ry rz
    limits (-160.0 20.0)
           (-70.0 70.0)
           (-70.0 60.0)
  end
  begin
     id 8 
     name rtibia
     direction -0.34202 -0.939693 0   
     length 7.69484   
     axis 0 0 -20   XYZ
    dof rx
    limits (-10.0 170.0)
 end
 begin
     id 9 
     name rfoot
     direction -0.111837 -0.30727 0.945028   
     length 2.15769  
     axis -90 -7.62852e-016 -20   XYZ
    dof rx rz
    limits (-45.0 90.0)
           (-20.0 70.0)
  end
  begin
     id 10 
     name rtoes
     direction -1.53539e-011 -4.21878e-011 1   
     length 1.07391   
     axis -90 -7.62852e-016 -20   XYZ
    dof rx
    limits (-90.0 20.0)
  end
  begin
     id 11 
     name lowerback
     direction 0.00552624 0.990109 -0.140195   
     length 2.12403   
     axis 0 0 0   XYZ
    dof rx ry rz
    limits (-20.0 45.0)
           (-30.0 30.0)
           (-30.0 30.0)
  end
  begin
     id 12 
     name upperback
     direction 0.00361898 0.999976 -0.00584723   
     length 2.13232   
     axis 0 0 0   XYZ
    dof rx ry rz
    limits (-20.0 45.0)
           (-30.0 30.0)
           (-30.0 30.0)
  end
  begin
     id 13 
     name thorax
     direction -0.000331275 0.998253 0.0590847   
     length 2.17688   
     axis 0 0 0   XYZ
    dof rx ry rz
    limits (-20.0 45.0)
           (-30.0 30.0)
           (-30.0 30.0)
  end
  begin
     id 14 
     name lowerneck
     direction -0.0561561 0.979832 0.19177   
     length 1.64159   
     axis 0 0 0   XYZ
    dof rx ry rz
    limits (-20.0 45.0)
           (-30.0 30.0)
           (-30.0 30.0)
  end
  begin
     id 15 
     name upperneck
     direction 0.0827153 0.979385 -0.184293   
     length 1.68939   
     axis 0 0 0   XYZ
    dof rx ry rz
    limits (-20.0 45.0)
           (-30.0 30.0)
           (-30.0 30.0)
  end
  begin
     id 16
     name head
     direction 0.0278583 0.995936 -0.0856488  
     length 1.70207  
     axis 0 0 0   XYZ
    dof rx ry rz
    limits (-20.0 45.0)
           (-30.0 30.0)
           (-30.0 30.0)
  end
  begin
     id 17 
     name lclavicle
     direction 0.950993 0.301131 -0.0702275  
     length 3.41652  
     axis 0 0 0   XYZ
    dof ry rz
    limits (-20.0 10.0)
           (0.0 20.0)
  end
  begin
     id 18 
     name lhumerus
     direction 1 -4.48981e-011 -3.9662e-029   
     length 5.32955   
     axis 180 -30 -90   XYZ
    dof rx ry rz
    limits (-60.0 90.0)
           (-90.0 90.0)
           (-90.0 90.0)
  end
  begin
     id 19
     name lradius
     direction 1 -4.48925e-011 -9.0549e-027   
     length 3.69232   
     axis 180 -30 -90   XYZ
    dof rx
    limits (-10.0 170.0)
  end
  begin
     id 20
     name lwrist
     direction 1 -4.49007e-011 -1.49005e-026   
     length 1.84616   
     axis 9.0955e-015 90 90   XYZ
    dof ry
    limits (-180.0 0.0)
 end
  begin
     id 21 
     name lhand
     direction 1 -4.49016e-011 -2.98023e-026   
     length 0.536598   
     axis 1.90115e-014 90 90   XYZ
    dof rx rz
    limits (-90.0 90.0)
           (-45.0 45.0)
  end
  begin
     id 22 
     name lfingers
     direction 1 -4.48924e-011 -5.9578e-026   
     length 0.432619   
     axis 3.80223e-014 90 90   XYZ
    dof rx
    limits (0.0 90.0)
  end
  begin
     id 23
     name lthumb
     direction 0.707107 -6.34947e-011 0.707107   
     length 0.621157   
     axis -90 45 -3.84942e-014   XYZ
    dof rx rz
    limits (-45.0 45.0)
           (-45.0 45.0)
  end
  begin
     id 24 
     name rclavicle
     direction -0.955495 0.276497 -0.102848   
     length 3.36357  
     axis 0 0 0   XYZ 
    dof ry rz
    limits (-10.0 20.0)
           (-20.0 0.0)
  end
  begin
     id 25 
     name rhumerus
     direction -1 -4.48961e-011 3.30983e-027  
     length 5.23431   
     axis 180 30 90   XYZ
    dof rx ry rz
    limits (-90.0 60.0)
           (-90.0 90.0)
           (-90.0 90.0)
  end
  begin
     id 26 
     name rradius
     direction -1 -4.48965e-011 -6.63263e-027   
     length 3.55301   
     axis 180 30 90   XYZ
    dof rx
    limits (-10.0 170.0)
  end
  begin
     id 27 
     name rwrist
     direction -1 -4.48942e-011 -1.48958e-026   
     length 1.77651   
     axis 9.0955e-015 -90 -90   XYZ
    dof ry
    limits (-180.0 0.0)
  end
  begin
     id 28
     name rhand
     direction -1 -4.48977e-011 -2.97966e-026   
     length 0.772522   
     axis 1.90115e-014 -90 -90   XYZ
    dof rx rz
    limits (-90.0 90.0)
           (-45.0 45.0)
  end
  begin
     id 29
     name rfingers
     direction -1 -4.49135e-011 -5.96389e-026   
     length 0.622827   
     axis 3.80223e-014 -90 -90   XYZ
    dof rx
    limits (0.0 90.0)
  end
  begin
     id 30
     name rthumb
     direction -0.707107 -6.34969e-011 0.707107   
     length 0.894259   
     axis -90 -45 3.84942e-014   XYZ
    dof rx rz
    limits (-45.0 45.0)
           (-45.0 45.0)
  end
:hierarchy
  begin
    root lhipjoint rhipjoint lowerback
    lhipjoint lfemur
    lfemur ltibia
    ltibia lfoot
    lfoot ltoes
    rhipjoint rfemur
    rfemur rtibia
    rtibia rfoot
    rfoot rtoes
    lowerback upperback
    upperback thorax
    thorax lowerneck lclavicle rclavicle
    lowerneck upperneck
    upperneck head
    lclavicle lhumerus
    lhumerus lradius
    lradius lwrist
    lwrist lhand lthumb
    lhand lfingers
    rclavicle rhumerus
    rhumerus rradius
    rradius rwrist
    rwrist rhand rthumb
    rhand rfingers
  end

#!OML:ASF F:\VICON\USERDATA\INSTALL\rory3\rory3.ASF
:FULLY-SPECIFIED
:DEGREES
71
root 0.887576 18.2168 0.422884 2.42176 53.5222 3.88437
lowerback 9.53595 1.83406 0.525281
upperback -0.0658195 2.51069 0.0627557
thorax -5.39808 1.22713 -0.581935
lowerneck -23.0346 -4.31719 -11.6276
upperneck 30.3138 -3.45542 5.95808
head 14.697 -1.89537 3.80746
rclavicle -2.56681e-014 3.18055e-015
rhumerus -32.2047 -10.7813 -78.0716
rradius 30.4555
rwrist 6.56896
rhand -15.5493 7.98184
rfingers 7.12502
rthumb 10.6349 -21.729
lclavicle -2.56681e-014 3.18055e-015
lhumerus -34.9271 7.19737 83.2013
lradius 29.991
lwrist -8.09804
lhand -17.8665 24.9596
lfingers 7.12502
lthumb 8.39914 54.7726
rfemur 1.14128 -16.2894 18.5579
rtibia 27.7123
rfoot -11.0891 -32.0396
rtoes 8.62521
lfemur -2.73526 4.24825 -25.0982
ltibia 5.99646
lfoot 1.33478 7.43777
ltoes 5.17279
72
root 0.927668 18.2204 0.420218 2.33896 54.3443 3.7534
lowerback 9.47137 1.76954 0.690079
upperback -0.053441 2.44467 0.0983125
thorax -5.34416 1.19124 -0.625539
lowerneck -23.12 -4.33305 -11.5737
upperneck 30.3609 -3.4576 5.87463
head 14.7344 -1.90095 3.76441
rclavicle -2.21396e-014 7.95139e-015
rhumerus -32.1128 -10.8796 -78.0728
rradius 30.5811
rwrist 6.57575
rhand -15.3742 7.82802
rfingers 7.12502
rthumb 10.8038 -21.8741
lclavicle -2.21396e-014 7.95139e-015
lhumerus -34.8242 7.27465 83.2245
lradius 29.9272
lwrist -8.28974
lhand -17.7865 24.8635
lfingers 7.12502
lthumb 8.47643 54.6734
rfemur 0.635678 -16.6393 18.5142
rtibia 29.0127
rfoot -10.718 -31.805
rtoes 9.17248
lfemur -1.89425 3.93981 -25.1106
ltibia 4.37304
lfoot 2.22109 6.92204
ltoes 4.37166
73
root 0.967632 18.2217 0.418064 2.53826 55.2829 3.9265
lowerback 9.4143 1.69681 0.698382
upperback -0.105571 2.34773 0.0857431
thorax -5.3671 1.14269 -0.629026
lowerneck -23.0271 -4.35497 -11.5341
upperneck 30.3453 -3.49204 5.81332
head 14.709 -1.9187 3.72477
rclavicle -6.44311e-014 2.38542e-015
rhumerus -32.1946 -10.9569 -78.0167
rradius 30.7804
rwrist 6.41999
rhand -15.2178 7.92101
rfingers 7.12502
rthumb 10.9547 -21.7732
lclavicle -6.44311e-014 2.38542e-015
lhumerus -34.8744 7.02956 83.4126
lradius 30.06
lwrist -8.32459
lhand -17.7192 25.3109
lfingers 7.12502
lthumb 8.54137 55.1182
rfemur 0.0816332 -17.0073 18.2715
rtibia 30.3653
rfoot -10.4039 -31.1874
rtoes 11.4905
lfemur -0.861842 3.5043 -25.3546
ltibia 2.28156
lfoot 3.40915 6.3245
ltoes 2.57891
74
root 1.00626 18.2255 0.409952 2.69003 56.0035 4.07764
lowerback 9.42022 1.69794 0.724439
upperback -0.122926 2.35219 0.0841345
thorax -5.38746 1.14394 -0.646501
lowerneck -23.0014 -4.4196 -11.6037
upperneck 30.3236 -3.56786 5.83847
head 14.7054 -1.95438 3.73194
rclavicle 4.09993e-014 -5.1684e-015
rhumerus -32.1185 -10.9457 -77.9974
rradius 30.8712
rwrist 6.31293
rhand -15.299 7.87879
rfingers 7.12502
rthumb 10.8763 -21.8195
lclavicle 4.09993e-014 -5.1684e-015
lhumerus -34.8732 6.83073 83.596
lradius 30.1936
lwrist -8.34132
lhand -17.6226 25.4385
lfingers 7.12502
lthumb 8.63454 55.242
rfemur -0.530655 -17.1569 18.0397
rtibia 31.7949
rfoot -9.75712 -30.7611
rtoes 12.35
lfemur 0.296252 3.29216 -25.6016
ltibia -3.15571e-015
lfoot 4.57847 5.66172
ltoes 1.55497
75
root 1.04564 18.2335 0.397472 2.60404 56.4976 3.98098
lowerback 9.46287 1.74341 0.887519
upperback -0.117728 2.43275 0.110496
thorax -5.39932 1.17957 -0.723016
lowerneck -22.9842 -4.45892 -11.7161
upperneck 30.2962 -3.62008 5.95365
head 14.7011 -1.9721 3.78895
rclavicle 2.25621e-014 -3.18055e-015
rhumerus -31.9602 -10.8542 -78.0402
rradius 30.8846
rwrist 6.39307
rhand -15.6012 7.86088
rfingers 7.12502
rthumb 10.5849 -21.8526
lclavicle 2.25621e-014 -3.18055e-015
lhumerus -34.8024 6.84271 83.6399
lradius 30.2527
lwrist -8.42713
lhand -17.4086 25.5098
lfingers 7.12502
lthumb 8.84103 55.3046
rfemur -1.20385 -17.1797 17.9184
rtibia 33.3262
rfoot -9.08343 -30.4867
rtoes 12.4942
lfemur 0.364609 3.30949 -25.6686
ltibia 1.56543e-015
lfoot 4.50506 5.17459
ltoes 1.64115
